Coordinates
nRows=4
nColumns=38

# SIMM Motion File Header:
name Coordinates
datacolumns 38
datarows 4
otherdata 1
range 1.87100000000000000000 1.87400000000000010000

Units are S.I. units (second, meters, Newtons, ...)
Angles are in degrees.

endheader
time	pelvis_tilt	pelvis_list	pelvis_rotation	pelvis_tx	pelvis_ty	pelvis_tz	hip_flexion_r	hip_adduction_r	hip_rotation_r	knee_angle_r	ankle_angle_r	subtalar_angle_r	mtp_angle_r	hip_flexion_l	hip_adduction_l	hip_rotation_l	knee_angle_l	ankle_angle_l	subtalar_angle_l	mtp_angle_l	lumbar_extension	lumbar_bending	lumbar_rotation	arm_flex_r	arm_add_r	arm_rot_r	elbow_flex_r	pro_sup_r	wrist_flex_r	wrist_dev_r	arm_flex_l	arm_add_l	arm_rot_l	elbow_flex_l	pro_sup_l	wrist_flex_l	wrist_dev_l
      1.87100000000000000000	     -5.54320547962712600000	      4.92632809027123920000	      0.99796966122959674000	      0.80400682483903074000	      1.04239824785898020000	     -0.46644205577503334000	     -4.03980140242163530000	     -4.38767988823568270000	     -7.64368678597761340000	    -36.07024147526867400000	    -20.15568563590440500000	      0.00000000000006763229	     -0.00000000000005629347	     21.70563209882556800000	      3.84608503650999230000	     -5.08350084622520090000	    -15.88057184619192500000	    -12.83816041047917300000	     -0.00000000000002666804	      0.00000000000002199391	     -1.42979994613819720000	     -0.67308523223666894000	      2.75598026667948390000	    -14.31257018227719000000	    -15.60625699771732600000	      8.82149680371369980000	    114.29467942552719000000	     87.03765515054948300000	      0.00000000000003521322	     -0.00000000000002012602	    -44.46936827811283200000	    -39.66321506916687400000	     13.85658856750640100000	    113.93026172506661000000	     68.19031625596680600000	      0.00000000000000145960	     -0.00000000000000580259
      1.87200000000000010000	     -5.51956123238591710000	      4.93330965276161400000	      1.03040405596192160000	      0.80404390472078147000	      1.04210617333289890000	     -0.46661389968178191000	     -3.97057673374314480000	     -4.39803688905951960000	     -7.60733637527252250000	    -36.41370634171110500000	    -20.07055800983189200000	      0.00000000000006805689	     -0.00000000000005680100	     21.65899173872172800000	      3.87418485721259880000	     -5.10037755845724570000	    -15.82396959489770800000	    -12.95258923847191200000	     -0.00000000000002676529	      0.00000000000002202492	     -1.44594456013233130000	     -0.69613574949418544000	      2.69163419642755870000	    -14.36855851352679500000	    -15.63023400313494400000	      8.82116508134344460000	    114.23696309557521000000	     87.06368228058215700000	      0.00000000000003536290	     -0.00000000000002020279	    -44.39706560406739300000	    -39.63560103333681900000	     13.87401396668923100000	    113.94402714856936000000	     68.20087410582175400000	      0.00000000000000144706	     -0.00000000000000583016
      1.87300000000000000000	     -5.49373046364620250000	      4.94043899122054950000	      1.06168453692133040000	      0.80407960196982087000	      1.04180800036641720000	     -0.46678322702991981000	     -3.90193027254033130000	     -4.40814867557621070000	     -7.56903850476306510000	    -36.75885426124998600000	    -19.98252964985477900000	      0.00000000000006848054	     -0.00000000000005730736	     21.61130702090192200000	      3.90192886031231190000	     -5.11727493182538940000	    -15.77468634602826300000	    -13.06643556895420300000	     -0.00000000000002686170	      0.00000000000002205539	     -1.46484693132051150000	     -0.71947682623998621000	      2.62764212295991810000	    -14.42410587153568900000	    -15.65376547510810200000	      8.82099189035955430000	    114.17730751528289000000	     87.08554383772809600000	      0.00000000000003551273	     -0.00000000000002028035	    -44.32202559029519100000	    -39.60833389143279200000	     13.89322901032527300000	    113.95681440630315000000	     68.21192458869566600000	      0.00000000000000143475	     -0.00000000000000585770
      1.87400000000000010000	     -5.46573063502775280000	      4.94769657211707600000	      1.09180665346739360000	      0.80411397487272418000	      1.04150370171752750000	     -0.46694993893632619000	     -3.83386492535777100000	     -4.41800582979772650000	     -7.52896146652702040000	    -37.10560053669460200000	    -19.89168799812234000000	      0.00000000000006890559	     -0.00000000000005781429	     21.56255591216690700000	      3.92926721597389590000	     -5.13419762846499240000	    -15.73269264207815800000	    -13.17938068543940100000	     -0.00000000000002695787	      0.00000000000002208551	     -1.48647520926794030000	     -0.74309935219871726000	      2.56400389308257240000	    -14.47920664430230200000	    -15.67682654802539800000	      8.82101651543605310000	    114.11569965342794000000	     87.10317218513580400000	      0.00000000000003566248	     -0.00000000000002035724	    -44.24429018301459100000	    -39.58144761999753300000	     13.91420178372178800000	    113.96863769549086000000	     68.22344643248288800000	      0.00000000000000142282	     -0.00000000000000588505
